<svg xmlns="http://www.w3.org/2000/svg" width="820" height="362" viewBox="0 0 820 362" role="img" aria-label="Token savings — rtk's own test fixtures">
<rect x="0.5" y="0.5" width="819" height="361" rx="10" fill="#0d1117" stroke="#30363d"/>
<text x="24.0" y="32.0" font-family="'Segoe UI', Helvetica, Arial, sans-serif" font-size="17" fill="#e6edf3" font-weight="600">Token savings — rtk's own test fixtures</text>
<text x="24.0" y="52.0" font-family="'Segoe UI', Helvetica, Arial, sans-serif" font-size="12" fill="#8b949e">end-to-end replay of fixtures from the rtk repo (gradle / maven / glab — its flagship modules) · higher is better</text>
<rect x="670" y="22" width="11" height="11" rx="2" fill="#3fb950"/>
<text x="687.0" y="32.0" font-family="'Segoe UI', Helvetica, Arial, sans-serif" font-size="12" fill="#e6edf3">tok</text>
<rect x="730" y="22" width="11" height="11" rx="2" fill="#6e7681"/>
<text x="747.0" y="32.0" font-family="'Segoe UI', Helvetica, Arial, sans-serif" font-size="12" fill="#e6edf3">rtk</text>
<line x1="362.5" y1="62" x2="362.5" y2="330" stroke="#21262d" stroke-width="1"/>
<text x="362.5" y="344.0" font-family="'Segoe UI', Helvetica, Arial, sans-serif" font-size="10" fill="#8b949e" text-anchor="middle">25%</text>
<line x1="485.0" y1="62" x2="485.0" y2="330" stroke="#21262d" stroke-width="1"/>
<text x="485.0" y="344.0" font-family="'Segoe UI', Helvetica, Arial, sans-serif" font-size="10" fill="#8b949e" text-anchor="middle">50%</text>
<line x1="607.5" y1="62" x2="607.5" y2="330" stroke="#21262d" stroke-width="1"/>
<text x="607.5" y="344.0" font-family="'Segoe UI', Helvetica, Arial, sans-serif" font-size="10" fill="#8b949e" text-anchor="middle">75%</text>
<line x1="730.0" y1="62" x2="730.0" y2="330" stroke="#21262d" stroke-width="1"/>
<text x="730.0" y="344.0" font-family="'Segoe UI', Helvetica, Arial, sans-serif" font-size="10" fill="#8b949e" text-anchor="middle">100%</text>
<text x="228.0" y="92.0" font-family="'Segoe UI', Helvetica, Arial, sans-serif" font-size="13" fill="#8b949e" text-anchor="end">gradle build FAILED</text>
<rect x="240" y="71" width="296.4" height="13" rx="3" fill="#6e7681"/>
<text x="543.5" y="82.0" font-family="'Segoe UI', Helvetica, Arial, sans-serif" font-size="12" fill="#8b949e">60.5%</text>
<rect x="240" y="88" width="356.7" height="13" rx="3" fill="#3fb950"/>
<text x="603.7" y="99.0" font-family="'Segoe UI', Helvetica, Arial, sans-serif" font-size="12" fill="#e6edf3">72.8%</text>
<text x="228.0" y="136.0" font-family="'Segoe UI', Helvetica, Arial, sans-serif" font-size="13" fill="#8b949e" text-anchor="end">gradle test FAILED</text>
<rect x="240" y="115" width="139.2" height="13" rx="3" fill="#6e7681"/>
<text x="386.2" y="126.0" font-family="'Segoe UI', Helvetica, Arial, sans-serif" font-size="12" fill="#8b949e">28.4%</text>
<rect x="240" y="132" width="212.2" height="13" rx="3" fill="#3fb950"/>
<text x="459.2" y="143.0" font-family="'Segoe UI', Helvetica, Arial, sans-serif" font-size="12" fill="#e6edf3">43.3%</text>
<text x="228.0" y="180.0" font-family="'Segoe UI', Helvetica, Arial, sans-serif" font-size="13" fill="#8b949e" text-anchor="end">mvn test FAILED</text>
<rect x="240" y="159" width="238.6" height="13" rx="3" fill="#6e7681"/>
<text x="485.6" y="170.0" font-family="'Segoe UI', Helvetica, Arial, sans-serif" font-size="12" fill="#8b949e">48.7%</text>
<rect x="240" y="176" width="289.1" height="13" rx="3" fill="#3fb950"/>
<text x="536.1" y="187.0" font-family="'Segoe UI', Helvetica, Arial, sans-serif" font-size="12" fill="#e6edf3">59%</text>
<text x="228.0" y="224.0" font-family="'Segoe UI', Helvetica, Arial, sans-serif" font-size="13" fill="#8b949e" text-anchor="end">mvn install OK</text>
<rect x="240" y="203" width="367.0" height="13" rx="3" fill="#6e7681"/>
<text x="614.0" y="214.0" font-family="'Segoe UI', Helvetica, Arial, sans-serif" font-size="12" fill="#8b949e">74.9%</text>
<rect x="240" y="220" width="451.3" height="13" rx="3" fill="#3fb950"/>
<text x="698.3" y="231.0" font-family="'Segoe UI', Helvetica, Arial, sans-serif" font-size="12" fill="#e6edf3">92.1%</text>
<text x="228.0" y="268.0" font-family="'Segoe UI', Helvetica, Arial, sans-serif" font-size="13" fill="#8b949e" text-anchor="end">glab CI trace (failed)</text>
<rect x="240" y="247" width="224.9" height="13" rx="3" fill="#6e7681"/>
<text x="471.9" y="258.0" font-family="'Segoe UI', Helvetica, Arial, sans-serif" font-size="12" fill="#8b949e">45.9%</text>
<rect x="240" y="264" width="235.2" height="13" rx="3" fill="#3fb950"/>
<text x="482.2" y="275.0" font-family="'Segoe UI', Helvetica, Arial, sans-serif" font-size="12" fill="#e6edf3">48%</text>
<line x1="16" y1="286" x2="804" y2="286" stroke="#30363d" stroke-width="1"/>
<text x="228.0" y="312.0" font-family="'Segoe UI', Helvetica, Arial, sans-serif" font-size="13" fill="#e6edf3" text-anchor="end" font-weight="600">TOTAL</text>
<rect x="240" y="291" width="269.0" height="13" rx="3" fill="#6e7681"/>
<text x="516.0" y="302.0" font-family="'Segoe UI', Helvetica, Arial, sans-serif" font-size="12" fill="#8b949e">54.9%</text>
<rect x="240" y="308" width="320.0" height="13" rx="3" fill="#3fb950"/>
<text x="567.0" y="319.0" font-family="'Segoe UI', Helvetica, Arial, sans-serif" font-size="12" fill="#e6edf3" font-weight="600">65.3%</text>
</svg>