<svg xmlns="http://www.w3.org/2000/svg" width="820" height="468" viewBox="0 0 820 468" role="img" aria-label="Subagent duel — same task on live code">
<rect x="0.5" y="0.5" width="819" height="467" rx="10" fill="#0d1117" stroke="#30363d"/>
<text x="24.0" y="32.0" font-family="'Segoe UI', Helvetica, Arial, sans-serif" font-size="17" fill="#e6edf3" font-weight="600">Subagent duel — same task on live code</text>
<text x="24.0" y="52.0" font-family="'Segoe UI', Helvetica, Arial, sans-serif" font-size="12" fill="#8b949e">two Claude subagents, twin repos with 2 planted bugs · bars normalized to the rtk agent (=100%) · lower is better</text>
<rect x="670" y="22" width="11" height="11" rx="2" fill="#3fb950"/>
<text x="687.0" y="32.0" font-family="'Segoe UI', Helvetica, Arial, sans-serif" font-size="12" fill="#e6edf3">tok</text>
<rect x="730" y="22" width="11" height="11" rx="2" fill="#6e7681"/>
<text x="747.0" y="32.0" font-family="'Segoe UI', Helvetica, Arial, sans-serif" font-size="12" fill="#e6edf3">rtk</text>
<line x1="377.5" y1="62" x2="377.5" y2="418" stroke="#21262d" stroke-width="1"/>
<text x="377.5" y="432.0" font-family="'Segoe UI', Helvetica, Arial, sans-serif" font-size="10" fill="#8b949e" text-anchor="middle">25%</text>
<line x1="495.0" y1="62" x2="495.0" y2="418" stroke="#21262d" stroke-width="1"/>
<text x="495.0" y="432.0" font-family="'Segoe UI', Helvetica, Arial, sans-serif" font-size="10" fill="#8b949e" text-anchor="middle">50%</text>
<line x1="612.5" y1="62" x2="612.5" y2="418" stroke="#21262d" stroke-width="1"/>
<text x="612.5" y="432.0" font-family="'Segoe UI', Helvetica, Arial, sans-serif" font-size="10" fill="#8b949e" text-anchor="middle">75%</text>
<line x1="730.0" y1="62" x2="730.0" y2="418" stroke="#21262d" stroke-width="1"/>
<text x="730.0" y="432.0" font-family="'Segoe UI', Helvetica, Arial, sans-serif" font-size="10" fill="#8b949e" text-anchor="middle">100%</text>
<text x="248.0" y="92.0" font-family="'Segoe UI', Helvetica, Arial, sans-serif" font-size="13" fill="#8b949e" text-anchor="end">result bytes — phone (Termux)</text>
<rect x="260" y="71" width="470.0" height="13" rx="3" fill="#6e7681"/>
<text x="737.0" y="82.0" font-family="'Segoe UI', Helvetica, Arial, sans-serif" font-size="12" fill="#8b949e">2794 B</text>
<rect x="260" y="88" width="421.1" height="13" rx="3" fill="#3fb950"/>
<text x="688.1" y="99.0" font-family="'Segoe UI', Helvetica, Arial, sans-serif" font-size="12" fill="#e6edf3">2504 B</text>
<text x="248.0" y="136.0" font-family="'Segoe UI', Helvetica, Arial, sans-serif" font-size="13" fill="#8b949e" text-anchor="end">result bytes — PC</text>
<rect x="260" y="115" width="470.0" height="13" rx="3" fill="#6e7681"/>
<text x="737.0" y="126.0" font-family="'Segoe UI', Helvetica, Arial, sans-serif" font-size="12" fill="#8b949e">1699 B</text>
<rect x="260" y="132" width="356.3" height="13" rx="3" fill="#3fb950"/>
<text x="623.3" y="143.0" font-family="'Segoe UI', Helvetica, Arial, sans-serif" font-size="12" fill="#e6edf3">1287 B</text>
<text x="248.0" y="180.0" font-family="'Segoe UI', Helvetica, Arial, sans-serif" font-size="13" fill="#8b949e" text-anchor="end">tokens, ws — phone (Termux)</text>
<rect x="260" y="159" width="470.0" height="13" rx="3" fill="#6e7681"/>
<text x="737.0" y="170.0" font-family="'Segoe UI', Helvetica, Arial, sans-serif" font-size="12" fill="#8b949e">357</text>
<rect x="260" y="176" width="413.6" height="13" rx="3" fill="#3fb950"/>
<text x="680.6" y="187.0" font-family="'Segoe UI', Helvetica, Arial, sans-serif" font-size="12" fill="#e6edf3">314</text>
<text x="248.0" y="224.0" font-family="'Segoe UI', Helvetica, Arial, sans-serif" font-size="13" fill="#8b949e" text-anchor="end">tokens, ws — PC</text>
<rect x="260" y="203" width="470.0" height="13" rx="3" fill="#6e7681"/>
<text x="737.0" y="214.0" font-family="'Segoe UI', Helvetica, Arial, sans-serif" font-size="12" fill="#8b949e">208</text>
<rect x="260" y="220" width="361.4" height="13" rx="3" fill="#3fb950"/>
<text x="628.4" y="231.0" font-family="'Segoe UI', Helvetica, Arial, sans-serif" font-size="12" fill="#e6edf3">160</text>
<text x="248.0" y="268.0" font-family="'Segoe UI', Helvetica, Arial, sans-serif" font-size="13" fill="#8b949e" text-anchor="end">tokens, BPE — phone (Termux)</text>
<rect x="260" y="247" width="470.0" height="13" rx="3" fill="#6e7681"/>
<text x="737.0" y="258.0" font-family="'Segoe UI', Helvetica, Arial, sans-serif" font-size="12" fill="#8b949e">1122</text>
<rect x="260" y="264" width="420.2" height="13" rx="3" fill="#3fb950"/>
<text x="687.2" y="275.0" font-family="'Segoe UI', Helvetica, Arial, sans-serif" font-size="12" fill="#e6edf3">1003</text>
<text x="248.0" y="312.0" font-family="'Segoe UI', Helvetica, Arial, sans-serif" font-size="13" fill="#8b949e" text-anchor="end">tokens, BPE — PC</text>
<rect x="260" y="291" width="470.0" height="13" rx="3" fill="#6e7681"/>
<text x="737.0" y="302.0" font-family="'Segoe UI', Helvetica, Arial, sans-serif" font-size="12" fill="#8b949e">642</text>
<rect x="260" y="308" width="351.6" height="13" rx="3" fill="#3fb950"/>
<text x="618.6" y="319.0" font-family="'Segoe UI', Helvetica, Arial, sans-serif" font-size="12" fill="#e6edf3">480</text>
<text x="248.0" y="356.0" font-family="'Segoe UI', Helvetica, Arial, sans-serif" font-size="13" fill="#8b949e" text-anchor="end">wall-time — phone (Termux)</text>
<rect x="260" y="335" width="470.0" height="13" rx="3" fill="#6e7681"/>
<text x="737.0" y="346.0" font-family="'Segoe UI', Helvetica, Arial, sans-serif" font-size="12" fill="#8b949e">97.2 s</text>
<rect x="260" y="352" width="394.3" height="13" rx="3" fill="#3fb950"/>
<text x="661.3" y="363.0" font-family="'Segoe UI', Helvetica, Arial, sans-serif" font-size="12" fill="#e6edf3">81.5 s</text>
<text x="248.0" y="400.0" font-family="'Segoe UI', Helvetica, Arial, sans-serif" font-size="13" fill="#8b949e" text-anchor="end">wall-time — PC</text>
<rect x="260" y="379" width="470.0" height="13" rx="3" fill="#6e7681"/>
<text x="737.0" y="390.0" font-family="'Segoe UI', Helvetica, Arial, sans-serif" font-size="12" fill="#8b949e">96.7 s</text>
<rect x="260" y="396" width="462.0" height="13" rx="3" fill="#3fb950"/>
<text x="729.0" y="407.0" font-family="'Segoe UI', Helvetica, Arial, sans-serif" font-size="12" fill="#e6edf3">95.1 s</text>
<text x="24.0" y="454.0" font-family="'Segoe UI', Helvetica, Arial, sans-serif" font-size="11" fill="#8b949e">PC = current tok (after the cargo-tally fix); pre-fix tok lost the first PC round — full history in the data table · all lanes: 4/4 PASS + commit</text>
</svg>